<?xml version="1.0" encoding="UTF-8" standalone="no"?>
<svg xmlns="http://www.w3.org/2000/svg" width="458.805" height="474.491" viewBox="0 0 121.392 125.542">
  <text x="43.089" y="65.768" style="-inkscape-font-specification:'monospace, Bold';font-variant-ligatures:normal;font-variant-caps:normal;font-variant-numeric:normal;font-feature-settings:normal;text-align:start" font-weight="700" font-size="12" font-family="monospace">
    Error!
  </text>
  <path d="M55.47 64.915c2.489 2.308-1.883 4.493-3.836 4.136-5.292-.968-6.388-7.658-4.436-11.809 3.492-7.424 13.24-8.645 19.781-4.735 9.6 5.738 10.966 18.895 5.035 27.753-7.905 11.807-24.577 13.314-35.725 5.335-14.03-10.04-15.676-30.272-5.635-43.698 12.16-16.261 35.973-18.045 51.67-5.934 18.499 14.271 20.42 41.68 6.234 59.642-16.377 20.74-47.388 22.797-67.615 6.534C-2.04 83.66-4.234 49.04 14.11 26.552c20.579-25.229 58.812-27.56 83.56-7.134 27.475 22.677 29.942 64.526 7.433 91.533" fill="none" stroke="#000" stroke-width=".252"/>
</svg>
